<svg  viewBox="0 0 829 991" fill="none" xmlns="http://www.w3.org/2000/svg">
<g filter="url(#filter0_d_4_48)">
<path d="M773.723 232.492L480.594 237.191L484.103 441.788L777.232 437.089L773.723 232.492Z" fill="#FFD8D9"/>
<path opacity="0.3" d="M657.529 234.33L480.305 237.171L483.814 441.768L661.038 438.927L657.529 234.33Z" fill="white"/>
<path opacity="0.3" d="M684.235 248.116L633.197 249.103L633.481 262.857L684.519 261.87L684.235 248.116Z" fill="white"/>
<path opacity="0.3" d="M685.75 407.213L634.719 408.032L634.955 421.784L685.986 420.966L685.75 407.213Z" fill="white"/>
<path d="M390.428 690.029C394.848 693.295 483.586 684.06 460.646 531.85C460.646 531.85 502.741 542.191 507.264 541.503C507.264 541.503 569.022 633.045 524.056 678.386C479.09 723.728 412.072 726.503 412.072 726.503L390.428 690.029Z" fill="#FFD8D9"/>
<path opacity="0.3" d="M390.428 690.029C394.848 693.295 483.586 684.06 460.646 531.85C460.646 531.85 502.741 542.191 507.264 541.503C507.264 541.503 569.022 633.045 524.056 678.386C479.09 723.728 412.072 726.503 412.072 726.503L390.428 690.029Z" fill="black"/>
<path d="M488.769 555.405C488.998 555.405 463.974 555.872 455.591 545.801C447.207 535.731 441.542 517.727 456.785 505.446C472.027 493.165 561.528 440.111 603.674 435.936C645.82 431.76 690.939 458.042 690.939 458.042L635.76 497.488L516.943 525.292L488.769 555.405Z" fill="#263238"/>
<path d="M407.855 666.056L410.167 688.064L437.503 685.829L433.387 663.207L407.855 666.056Z" fill="#FFC3BD"/>
<path d="M402.546 686.467L442.202 685.927L445.022 705.282C445.022 705.282 407.881 705.773 392.613 703.808C377.344 701.843 379.732 694.155 379.732 694.155C379.732 694.155 397.617 694.573 402.546 686.467Z" fill="#263238"/>
<path d="M748.627 742.174C754.548 685.911 719.416 636.373 670.156 631.527C620.897 626.681 576.164 668.362 570.243 724.625C564.321 780.888 599.454 830.426 648.713 835.272C697.973 840.118 742.706 798.437 748.627 742.174Z" fill="#263238"/>
<path d="M597.12 420.192C597.12 420.192 601.235 511.488 546.31 514.092C491.386 516.695 432.371 510.874 432.371 510.874L449.671 674.923L398.176 677.993C398.176 677.993 361.212 538.826 355.395 503.849C349.577 468.873 354.633 444.139 392.816 428.616C430.999 413.093 597.12 420.192 597.12 420.192Z" fill="#FFD8D9"/>
<path d="M289.749 709.85L358.164 517.727L449.62 420.118C449.62 420.118 369.799 420.413 331.438 441.732C293.077 463.052 291.655 488.67 284.618 519.151C277.581 549.633 249.356 693.909 249.356 693.909L289.749 709.85Z" fill="#FFD8D9"/>
<path opacity="0.7" d="M597.12 420.192C597.12 420.192 512.116 416.532 449.773 420.192C449.773 420.192 369.952 420.486 331.591 441.806C293.23 463.126 291.655 488.67 284.618 519.152C277.581 549.633 249.356 693.91 249.356 693.91L289.749 709.85L358.164 517.727C369.672 570.977 398.176 677.895 398.176 677.895L449.671 674.923L432.345 510.972C432.345 510.972 491.335 516.794 546.285 514.19C601.235 511.586 597.12 420.192 597.12 420.192Z" fill="black"/>
<path d="M456.785 272.108L425.207 275.817C425.207 275.817 419.719 331.941 414.613 342.846C414.613 342.846 317.491 355.741 277.708 354.636L257.511 367.899L256.8 390.963L276.59 391.528L282.966 376.914C282.966 376.914 296.329 376.349 299.429 369.078C299.429 369.078 402.622 393.174 440.627 365.664C440.678 365.689 463.593 333.144 456.785 272.108Z" fill="#FFC3BD"/>
<path d="M547.276 121.814C547.276 121.814 557.158 134.095 553.398 144.73C552.361 147.763 550.532 150.486 548.089 152.637C545.646 154.788 542.671 156.295 539.451 157.011C539.451 157.011 537.597 174.032 527.206 174.523C516.816 175.015 520.296 137.017 520.296 137.017L547.276 121.814Z" fill="#263238"/>
<path d="M467.277 420.609L460.341 310.891L417.306 283.234C417.306 283.234 431.38 235.265 458.309 227.135C485.238 219.005 543.973 200.363 579.59 209.622C615.208 218.882 611.117 259.508 604.995 289.645L598.136 291.217C598.136 291.217 597.069 409.974 597.018 420.192L467.277 420.609Z" fill="#263238"/>
<path d="M544.71 216.401C530.61 229.591 501.852 237.451 493.901 230.893C485.949 224.335 495.984 218.317 503.453 210.9C507.492 206.822 507.365 199.184 506.425 193.092C505.93 190.023 505.2 186.994 504.24 184.029C477.845 182.629 466.896 170.692 465.803 149.642C464.711 128.593 474.568 104.154 474.568 104.154L493.215 88.7778C493.215 88.7778 518.619 92.4621 538.943 105.971C551.036 113.929 547.454 129.6 542.449 141.168C540.328 146.093 537.779 150.834 534.827 155.341C531.982 184.152 544.71 216.401 544.71 216.401Z" fill="#FFC3BD"/>
<path d="M480.487 155.439C480.487 155.439 490.649 155.906 495.095 149.814" stroke="#263238" stroke-linecap="round" stroke-linejoin="round"/>
<path d="M496.67 130.582C496.67 132.449 495.501 133.923 494.129 133.898C492.758 133.873 491.767 132.326 491.818 130.459C491.868 128.593 492.986 127.119 494.358 127.144C495.73 127.168 496.746 128.715 496.67 130.582Z" fill="#263238"/>
<path d="M473.501 131.172C473.501 133.038 472.332 134.512 470.96 134.488C469.588 134.463 468.598 132.916 468.649 131.049C468.699 129.182 469.817 127.708 471.189 127.733C472.561 127.758 473.577 129.33 473.501 131.172Z" fill="#263238"/>
<path d="M481.554 146.425L480.512 131.368L473.069 145.663C474.231 146.618 475.669 147.203 477.187 147.339C478.705 147.476 480.23 147.156 481.554 146.425Z" fill="#ED847E"/>
<path d="M495.45 118.792C497.399 118.275 499.474 118.442 501.307 119.266C503.14 120.089 504.612 121.514 505.46 123.287" stroke="#263238" stroke-linecap="round" stroke-linejoin="round"/>
<path d="M466.337 121.568C466.337 121.568 471.011 116.656 476.499 117.908" stroke="#263238" stroke-linecap="round" stroke-linejoin="round"/>
<path d="M542.627 141.168C513.564 142.175 509.956 110.319 509.956 110.319C495.577 117.687 474.669 104.178 474.669 104.178L493.316 88.7533C493.316 88.7533 518.721 92.4867 539.045 105.947C551.213 113.929 547.631 129.649 542.627 141.168Z" fill="#263238"/>
<path d="M465.32 113.512C465.32 113.512 450.281 103.834 456.912 96.8587C463.542 89.8831 504.164 103.147 534.523 119.407C534.523 119.407 464.99 74.4337 446.089 88.655C430.465 100.42 465.117 116.754 464.076 116.729L465.32 113.512Z" fill="#FFD8D9"/>
<path d="M550.146 110.22C550.104 115.313 549.106 120.357 547.2 125.105L478.912 93.1744C481.741 90.0159 485.131 87.3709 488.921 85.3637C492.963 83.1286 497.357 81.5519 501.929 80.6969C506.776 79.8009 511.738 79.6352 516.638 80.2057C541.611 82.9812 550.274 101.55 550.146 110.22Z" fill="#FFD8D9"/>
<path d="M393.273 403.907C388.827 408.402 331.337 396.882 321.302 402.04C317.059 404.202 315.205 411.865 310.937 420.265C305.119 431.687 294.779 444.213 267.749 445.048C220.801 446.497 226.466 400.444 222.757 385.486C222.757 385.486 178.299 377.65 175.962 370.11C173.625 362.569 176.496 361.44 176.496 361.44C176.496 361.44 231.344 371.264 241.963 357.853C244.02 355.911 246.432 354.353 249.077 353.26C255.172 350.67 261.728 349.243 268.384 349.06C287.717 348.078 311.292 353.334 317.898 365.173C331.311 389.317 388.827 383.889 394.111 390.226C399.396 396.563 397.719 399.412 393.273 403.907Z" fill="#FFD8D9"/>
<path d="M247.73 435.371C247.73 435.371 170.602 538.531 234.113 697.324" stroke="#263238" stroke-linecap="round" stroke-linejoin="round"/>
<path d="M349.526 488.965C349.526 488.965 349.526 489.161 349.526 489.554C349.526 489.947 349.526 490.168 349.526 490.611V490.856C348.609 500.791 346.91 510.645 344.445 520.331C340.94 534.65 336.291 548.282 332.454 559.237C316.196 605.781 318.075 655.937 318.075 655.937C312.69 649.452 302.833 644.835 290.511 641.593C245.647 629.68 169.484 636.066 169.484 636.066C154.546 585.395 159.881 506.085 174.743 461.677C189.604 417.269 230.811 427.29 230.811 427.29C230.811 427.29 274.303 428.518 279.765 427.953C289.762 426.781 299.88 426.979 309.819 428.543C343.404 434.487 351.482 460.154 349.526 488.965Z" fill="#FFD8D9"/>
<path d="M684.384 682.292C608.171 748.805 461.053 755.781 351.584 748.412L290.257 641.74L265.412 598.536L345.233 494.516L349.45 489.039C349.45 489.039 349.45 489.235 349.45 489.628C349.45 490.021 349.45 490.242 349.45 490.684V490.93C348.358 509.474 341.295 658.295 397.719 694.794L398.176 695.113C405.811 699.883 414.67 702.503 423.759 702.678C527.282 705.576 524.386 574.956 498.067 546.98L677.703 512.078C677.703 512.078 713.168 598.413 684.384 682.292Z" fill="#FFD8D9"/>
<path d="M484.577 518.66C484.577 518.66 467.734 532.169 476.422 550.296C485.111 568.423 568.87 533.226 601.845 526.815C634.82 520.404 672.978 514.141 689.389 510.874C705.8 507.607 704.378 462.094 690.964 458.066C677.551 454.038 546.158 476.488 524.361 488.818C509.968 497.268 496.62 507.281 484.577 518.66Z" fill="#263238"/>
<path d="M526.749 152.418C525.146 150.749 524.175 148.605 523.995 146.334C523.815 144.063 524.437 141.801 525.758 139.916C529.823 134.021 538.028 124.663 545.904 131.663C556.929 141.488 538.105 159.344 530.305 155.021C528.999 154.32 527.802 153.443 526.749 152.418Z" fill="#FFC3BD"/>
<path opacity="0.2" d="M465.321 113.512C465.321 113.512 450.281 103.834 456.912 96.8587C459.859 93.7639 468.674 94.4025 480.589 97.6938C488.25 99.688 495.755 102.208 503.046 105.234C513.513 109.631 524.64 115.256 534.523 119.407C534.523 119.407 464.99 74.4337 446.089 88.655C430.465 100.42 462.958 115.673 464.101 116.705L464.66 114.715L465.321 113.512Z" fill="black"/>
<path d="M472.459 109.312C472.459 109.312 457.217 111.768 467.734 127.635L472.459 109.312Z" fill="#263238"/>
<path d="M487.067 99.6342C487.067 99.6342 464.076 91.8235 457.674 96.2446C451.272 100.666 457.979 109.09 465.295 113.438L471.164 114.175L474.619 104.104L483.561 103.048L487.067 99.6342Z" fill="#263238"/>
<path opacity="0.3" d="M518.391 87.6234L512.878 95.5078L488.921 85.4374C492.963 83.2023 497.357 81.6256 501.929 80.7706L518.391 87.6234Z" fill="white"/>
<path opacity="0.1" d="M513.056 181.867C511.47 185.944 509.195 189.737 506.324 193.092C505.828 190.023 505.098 186.993 504.139 184.029C507.219 183.821 510.238 183.089 513.056 181.867Z" fill="black"/>
<path d="M285.304 397.865C284.287 414.886 276.666 428.813 267.317 432.252C265.699 432.854 263.967 433.113 262.236 433.013C250.703 432.374 242.319 415.648 243.488 395.679C244.656 375.71 254.97 360.039 266.504 360.678C271.204 360.924 275.345 363.847 278.571 368.538C283.322 375.268 285.989 386.026 285.304 397.865Z" fill="#F5F5F5"/>
<path d="M285.304 397.865C284.287 414.886 276.666 428.813 267.317 432.252C256.647 431.662 248.899 416.213 249.991 397.865C251.084 379.517 260.585 364.952 271.255 365.541C274.004 365.74 276.606 366.82 278.648 368.612C283.322 375.268 285.989 386.026 285.304 397.865Z" fill="white"/>
<path d="M697.036 639.136C677.398 625.799 601.413 612.708 601.413 612.708C555.253 612.708 514.732 652.867 509.143 706.19C504.571 749.567 524.386 788.94 556.32 806.894C556.32 806.894 558.987 807.975 563.458 809.67C580.378 816.13 623.312 831.776 648.691 835.214" fill="#263238"/>
<path opacity="0.3" d="M748.627 742.174C754.548 685.911 719.416 636.373 670.156 631.527C620.897 626.681 576.164 668.362 570.243 724.625C564.321 780.888 599.454 830.426 648.713 835.272C697.973 840.118 742.706 798.437 748.627 742.174Z" fill="black"/>
<path d="M353.689 738.899C359.61 682.637 324.478 633.098 275.218 628.252C225.958 623.406 181.226 665.088 175.304 721.35C169.383 777.613 204.516 827.152 253.775 831.998C303.035 836.844 347.768 795.162 353.689 738.899Z" fill="#263238"/>
<path d="M319.295 647.021L273.872 831.407C267.245 832.445 260.505 832.635 253.827 831.972H253.319C244.605 829.811 248.492 832.144 239.753 829.344C217.524 822.245 185.235 809.694 185.235 809.694C151.015 793.606 131.682 754.479 136.382 709.777C142.072 655.618 182.263 615.164 229.566 618.48C229.566 618.48 252.024 622.483 275.142 628.305C285.304 630.761 295.465 633.684 303.824 636.729C309.357 639.598 314.546 643.049 319.295 647.021Z" fill="#263238"/>
<path opacity="0.3" d="M353.693 738.784C348.612 787.294 314.646 824.947 273.821 831.309C267.194 832.347 260.454 832.537 253.776 831.874H253.268C243.967 830.903 234.927 828.298 226.593 824.186C192.272 807.361 170.551 766.49 175.302 721.296C181.221 665.074 225.857 623.442 275.091 628.207H275.218C285.214 629.182 294.916 632.045 303.773 636.631C309.308 639.507 314.496 642.967 319.244 646.947C343.556 667.383 357.707 701.671 353.693 738.784Z" fill="black"/>
<path d="M341.321 674.186C339.832 671.89 338.131 669.728 336.24 667.727C324.884 652.744 298.92 647.144 281.925 648.47C268.896 649.699 256.387 654.037 245.52 661.095C233.123 668.856 224.256 680.744 211.961 688.899C188.639 704.471 153.25 704.029 129.827 687.99C128.507 687.082 127.25 686.089 126.068 685.018C123.68 682.616 122.088 679.58 121.495 676.299C120.599 672.201 120.925 667.943 122.435 664.018C127.516 650.214 144.461 638.08 155.156 630.687C176.84 615.896 202.344 607.215 228.829 605.609C304.357 600.574 336.57 662.937 341.321 674.186Z" fill="#FFD8D9"/>
<path opacity="0.3" d="M336.087 676.151C319.854 653.505 299.022 647.144 282.026 648.47C268.998 649.699 256.488 654.037 245.622 661.095C233.224 668.856 224.358 680.744 212.062 688.899C188.741 704.471 153.352 704.029 129.929 687.99C128.608 687.082 127.352 686.089 126.169 685.018C123.782 682.616 122.19 679.58 121.596 676.299C120.7 672.201 121.026 667.943 122.536 664.018C130.386 672.786 153.25 693.909 184.219 683.667C222.834 670.772 232.259 632.456 273.541 632.799C306.339 633.168 326.535 657.73 336.087 676.151Z" fill="black"/>
<g opacity="0.3">
<path d="M166.207 623.933C177.223 616.364 189.617 610.872 202.739 607.746C215.873 604.514 229.476 603.435 242.979 604.553C256.462 605.808 269.665 609.055 282.128 614.182L286.752 616.147L291.274 618.332C294.322 619.708 297.193 621.427 300.14 622.999C303.087 624.571 305.805 626.512 308.625 628.256C311.445 629.999 314.087 632.038 316.78 633.978C305.7 626.802 293.874 620.767 281.493 615.975C269.136 611.182 256.116 608.177 242.852 607.059C229.616 605.835 216.263 606.664 203.298 609.515C196.788 610.91 190.408 612.816 184.219 615.213C177.938 617.551 171.906 620.471 166.207 623.933Z" fill="black"/>
</g>
<g opacity="0.3">
<path d="M248.467 606.371C245.299 596.128 243.398 585.558 242.802 574.882C241.963 564.247 241.786 553.563 242.014 542.952C242.243 532.341 243.005 521.632 244.021 511.021L245.876 495.155C246.689 489.874 247.4 484.593 248.416 479.337L246.104 511.267L245.19 527.183C245.037 532.489 244.707 537.794 244.682 543.099C244.25 553.71 244.453 564.321 244.859 575.03C245.037 580.335 245.469 585.616 246.028 590.897C246.474 596.103 247.289 601.273 248.467 606.371Z" fill="black"/>
</g>
<path opacity="0.3" d="M397.592 694.573C344.547 661.586 342.438 576.479 344.242 520.33C344.572 510.678 344.979 501.909 345.284 494.369C345.84 486.821 345.84 479.245 345.284 471.698C339.923 433.136 309.438 428.494 309.438 428.494H309.565C343.328 434.487 351.406 460.154 349.45 488.965C349.45 488.965 349.45 489.161 349.45 489.554C349.45 489.947 349.45 490.168 349.45 490.611V490.856C348.307 509.4 341.244 658.221 397.592 694.573Z" fill="black"/>
<path opacity="0.2" d="M393.273 403.907C388.827 408.402 331.337 396.882 321.302 402.04C317.059 404.202 315.205 411.865 310.937 420.265C298.946 438.687 282.077 441.585 281.036 441.732C301.156 426.995 306.77 391.528 296.786 369.103C286.802 346.678 251.058 352.499 249.026 353.162C255.121 350.571 261.677 349.145 268.333 348.962C287.666 347.98 311.242 353.236 317.847 365.075C331.26 389.219 388.776 383.791 394.061 390.128C399.345 396.465 397.719 399.412 393.273 403.907Z" fill="black"/>
<path d="M348.256 382.465C344.761 388.701 343.367 395.836 344.268 402.875L392.968 408.181C395.458 405.395 397.298 402.123 398.363 398.589C399.428 395.054 399.694 391.339 399.141 387.696C399.141 387.696 350.898 383.005 348.256 382.465Z" fill="#263238"/>
<path d="M200.376 380.721C200.376 380.721 195.524 370.748 201.341 364.436C188.334 363.306 180.281 361.98 171.897 360.801C170.653 364.461 170.043 367.973 174.438 373.549C178.833 379.124 200.376 380.721 200.376 380.721Z" fill="#263238"/>
<path d="M173.32 443.132C164.886 456.42 157.671 477.691 157.036 511.66" stroke="#FFD8D9" stroke-linecap="round" stroke-linejoin="round"/>
<path d="M201.087 421.223C194.951 422.599 189.31 425.543 184.752 429.746" stroke="#FFD8D9" stroke-linecap="round" stroke-linejoin="round"/>
<path d="M579.946 293.182L547.885 296.965C547.885 296.965 542.296 353.924 537.114 365.001C537.114 365.001 438.519 378.117 398.1 376.963L377.598 390.423L376.887 413.855L396.982 414.42L403.46 399.682C403.46 399.682 417.026 399.118 420.151 391.724C420.151 391.724 524.92 416.286 563.509 388.286C563.484 388.187 586.78 355.152 579.946 293.182Z" fill="#FFC3BD"/>
<path opacity="0.2" d="M318.888 731.415C317.974 762.314 297.04 786.778 272.119 786.09C268.769 785.993 265.451 785.439 262.262 784.445C242.294 778.304 227.915 755.535 228.702 728.886C229.49 703.096 244.199 681.776 263.532 675.856C267.395 674.655 271.441 674.099 275.497 674.211C300.419 674.923 319.828 700.615 318.888 731.415Z" fill="#FAFAFA"/>
<path d="M295.948 731.416C295.161 757.795 280.705 779.483 262.262 784.518C242.294 778.378 227.915 755.609 228.702 728.959C229.49 703.169 244.199 681.85 263.532 675.93C282.738 680.965 296.736 704.103 295.948 731.416Z" fill="#263238"/>
<path opacity="0.2" d="M710.322 733.872C709.382 764.771 688.449 789.259 663.553 788.547C660.202 788.463 656.881 787.909 653.696 786.901C633.702 780.76 619.323 758.016 620.136 731.342C620.898 705.576 635.608 684.232 654.94 678.313C658.803 677.112 662.85 676.555 666.906 676.667C691.828 677.379 711.237 703.022 710.322 733.872Z" fill="#FAFAFA"/>
<path d="M687.382 733.872C686.569 760.227 672.139 781.915 653.696 786.95C633.702 780.81 619.323 758.065 620.136 731.391C620.898 705.626 635.608 684.281 654.94 678.362C674.172 683.397 688.195 706.534 687.382 733.872Z" fill="#263238"/>
<path d="M749.598 652.474C750.03 682.857 702.193 702.973 622.143 715.647C600.565 719.315 578.514 719.564 556.853 716.384C521.287 710.71 503.91 696.169 503.91 696.169C503.91 696.169 512.954 591.167 602.455 577.855C663.426 568.816 709.306 592.592 732.577 618.21C743.526 630.245 749.471 642.747 749.598 652.474Z" fill="#FFD8D9"/>
<path opacity="0.3" d="M749.598 652.474C750.03 682.857 702.193 702.973 622.143 715.647C600.565 719.315 578.514 719.564 556.853 716.384C560.689 687.867 577.914 613.076 652.781 605.315C686.747 601.778 712.965 608.41 732.577 618.21C743.526 630.245 749.471 642.747 749.598 652.474Z" fill="black"/>
<g opacity="0.3">
<path d="M509.093 696.636C510.74 682.343 514.265 668.311 519.585 654.881C524.815 641.311 532.036 628.54 541.026 616.957C545.569 611.2 550.673 605.878 556.269 601.066C561.814 596.175 567.926 591.922 574.484 588.392C587.533 581.277 601.992 576.916 616.91 575.595C609.6 576.779 602.409 578.571 595.417 580.949C591.886 581.981 588.558 583.577 585.256 584.928C581.942 586.463 578.711 588.16 575.577 590.013C572.376 591.781 569.429 593.918 566.405 595.908C563.382 597.897 560.588 600.255 557.92 602.736C552.495 607.502 547.553 612.757 543.16 618.431C534.236 629.79 526.962 642.277 521.541 655.544C518.726 662.152 516.3 668.909 514.275 675.783C512.12 682.628 510.389 689.591 509.093 696.636Z" fill="black"/>
</g>
<path d="M388.98 661.954L394.264 679.295L449.671 674.825L450.408 650.582L388.98 661.954Z" fill="#FFD8D9"/>
<path d="M730.128 601.676L828.507 597.811" stroke="#FFD8D9" stroke-linecap="round" stroke-linejoin="round"/>
<path d="M777.278 583.778L849.807 580.924" stroke="#FFD8D9" stroke-linecap="round" stroke-linejoin="round"/>
<path d="M828.036 633.011L888.818 630.633" stroke="#FFD8D9" stroke-linecap="round" stroke-linejoin="round"/>
<path d="M790.459 634.498L816.945 633.447" stroke="#FFD8D9" stroke-linecap="round" stroke-linejoin="round"/>
</g>
<defs>
<filter id="filter0_d_4_48" x="-4" y="0" width="1033" height="999" filterUnits="userSpaceOnUse" color-interpolation-filters="sRGB">
<feFlood flood-opacity="0" result="BackgroundImageFix"/>
<feColorMatrix in="SourceAlpha" type="matrix" values="0 0 0 0 0 0 0 0 0 0 0 0 0 0 0 0 0 0 127 0" result="hardAlpha"/>
<feOffset dy="4"/>
<feGaussianBlur stdDeviation="2"/>
<feComposite in2="hardAlpha" operator="out"/>
<feColorMatrix type="matrix" values="0 0 0 0 0 0 0 0 0 0 0 0 0 0 0 0 0 0 0.25 0"/>
<feBlend mode="normal" in2="BackgroundImageFix" result="effect1_dropShadow_4_48"/>
<feBlend mode="normal" in="SourceGraphic" in2="effect1_dropShadow_4_48" result="shape"/>
</filter>
</defs>
</svg>
